<?xml version="1.0" encoding="UTF-8"?>
<svg xmlns="http://www.w3.org/2000/svg" xmlns:xlink="http://www.w3.org/1999/xlink" width="50pt" height="50pt" viewBox="0 0 50 50" version="1.1">
<g id="surface11234649">
<path style=" stroke:none;fill-rule:nonzero;fill:rgb(100%,100%,100%);fill-opacity:1;" d="M 25 2 C 12.308594 2 2 12.308594 2 25 C 2 37.691406 12.308594 48 25 48 C 37.691406 48 48 37.691406 48 25 C 48 12.308594 37.691406 2 25 2 Z M 25 4 C 36.609375 4 46 13.390625 46 25 C 46 36.609375 36.609375 46 25 46 C 13.390625 46 4 36.609375 4 25 C 4 13.390625 13.390625 4 25 4 Z M 26.582031 10 C 23.929688 10 21.917969 10.867188 20.679688 12.402344 C 19.4375 13.933594 19 15.980469 19 18.226562 L 19 20 L 17 20 C 16.449219 20 16 20.449219 16 21 L 16 26 C 16 26.550781 16.449219 27 17 27 L 19 27 L 19 39 C 19 39.550781 19.449219 40 20 40 L 26 40 C 26.550781 40 27 39.550781 27 39 L 27 27 L 31 27 C 31.476562 27 31.886719 26.664062 31.980469 26.195312 L 32.980469 21.195312 C 33.039062 20.902344 32.960938 20.597656 32.773438 20.367188 C 32.582031 20.132812 32.300781 20 32 20 L 27 20 L 27 17.808594 C 27 17.320312 27.03125 17.324219 27.171875 17.234375 C 27.3125 17.144531 27.820312 17 28.710938 17 L 32 17 C 32.550781 17 33 16.550781 33 16 L 33 12 C 33 11.578125 32.734375 11.199219 32.335938 11.058594 C 32.335938 11.058594 29.457031 10 26.582031 10 Z M 26.582031 12 C 28.472656 12 30.226562 12.511719 31 12.753906 L 31 15 L 28.710938 15 C 27.664062 15 26.8125 15.085938 26.085938 15.558594 C 25.355469 16.03125 25 16.941406 25 17.804688 L 25 21 C 25 21.550781 25.449219 22 26 22 L 30.78125 22 L 30.179688 25 L 26 25 C 25.449219 25 25 25.449219 25 26 L 25 38 L 21 38 L 21 26 C 21 25.449219 20.550781 25 20 25 L 18 25 L 18 22 L 20 22 C 20.550781 22 21 21.550781 21 21 L 21 18.226562 C 21 16.246094 21.40625 14.683594 22.234375 13.65625 C 23.058594 12.632812 24.335938 12 26.582031 12 Z M 26.582031 12 "/>
</g>
</svg>
